<svg xmlns="http://www.w3.org/2000/svg" viewBox="0 0 1200 630"><defs><linearGradient id="ogGradient" x1="0%" x2="100%" y1="0%" y2="100%"><stop offset="0%" style="stop-color:#06b6d4"/><stop offset="100%" style="stop-color:#8b5cf6"/></linearGradient><pattern id="grid" width="40" height="40" patternUnits="userSpaceOnUse"><path fill="none" stroke="rgba(255,255,255,0.03)" stroke-width="1" d="M 40 0 L 0 0 0 40"/></pattern></defs><rect width="1200" height="630" fill="#030712"/><rect width="1200" height="630" fill="url(#grid)"/><ellipse cx="200" cy="150" fill="rgba(6, 182, 212, 0.08)" rx="300" ry="200"/><ellipse cx="1000" cy="480" fill="rgba(139, 92, 246, 0.08)" rx="250" ry="180"/><g transform="translate(100, 250)"><polygon fill="none" stroke="url(#ogGradient)" stroke-width="3" points="60 0 120 35 120 105 60 140 0 105 0 35"/><polygon fill="url(#ogGradient)" points="60 25 100 85 20 85" opacity=".9"/></g><text x="250" y="300" fill="#f8fafc" font-family="system-ui, -apple-system, BlinkMacSystemFont, 'Segoe UI', sans-serif" font-size="72" font-weight="800">DUO<tspan fill="url(#ogGradient)">DRIVEN</tspan></text><text x="250" y="370" fill="#94a3b8" font-family="system-ui, -apple-system, BlinkMacSystemFont, 'Segoe UI', sans-serif" font-size="28">Full-Stack Growth Engineering</text><text x="250" y="420" fill="#64748b" font-family="system-ui, -apple-system, BlinkMacSystemFont, 'Segoe UI', sans-serif" font-size="20">Autonomous Operations • Generative Creative • AI Infrastructure</text><line x1="250" x2="600" y1="440" y2="440" stroke="url(#ogGradient)" stroke-width="2" opacity=".5"/><path fill="none" stroke="url(#ogGradient)" stroke-width="2" d="M 50 50 L 50 100 M 50 50 L 100 50"/><path fill="none" stroke="url(#ogGradient)" stroke-width="2" d="M 1150 580 L 1150 530 M 1150 580 L 1100 580"/></svg>